<svg xmlns="http://www.w3.org/2000/svg" width="4462.667" height="4462.667" preserveAspectRatio="xMidYMid meet" version="1.0" viewBox="0 0 3347 3347"><metadata>Created by potrace 1.11, written by Peter Selinger 2001-2013</metadata><g fill="#000" stroke="none"><path d="M17800 33457 c-3 -3 -29 -8 -59 -12 -69 -9 -168 -30 -201 -43 -14 -5 -28 -10 -33 -10 -26 -2 -180 -60 -245 -93 -152 -77 -250 -149 -376 -275 -155 -155 -322 -406 -549 -824 -23 -41 -51 -93 -63 -115 -42 -75 -374 -678 -427 -775 -17 -30 -50 -91 -75 -135 -24 -44 -56 -102 -71 -130 -14 -27 -29 -51 -33 -53 -5 -2 -8 -8 -8 -13 0 -4 -56 -110 -125 -234 -69 -124 -125 -228 -125 -230 0 -2 -13 -25 -29 -52 -27 -44 -434 -781 -488 -883 -14 -25 -45 -81 -69 -125 -25 -44 -50 -92 -57 -107 -6 -16 -15 -28 -19 -28 -4 0 -8 -4 -8 -9 0 -7 -174 -331 -199 -371 -6 -8 -22 -37 -37 -65 -15 -27 -48 -88 -74 -135 -85 -152 -97 -174 -132 -240 -20 -36 -70 -128 -113 -205 -43 -77 -92 -165 -108 -195 -17 -30 -99 -180 -184 -333 -84 -153 -153 -282 -153 -286 0 -5 -3 -11 -7 -13 -5 -1 -16 -19 -27 -38 -17 -34 -283 -518 -334 -610 -13 -25 -58 -106 -99 -180 -42 -74 -86 -155 -100 -180 -13 -25 -34 -63 -47 -85 -12 -22 -63 -114 -113 -205 -957 -1741 -1188 -2155 -1217 -2179 -9 -8 -16 -17 -16 -22 0 -24 -128 -151 -196 -195 -113 -73 -281 -128 -484 -160 -19 -3 -38 -8 -41 -10 -3 -2 -21 -6 -40 -9 -19 -3 -176 -33 -349 -66 -173 -33 -326 -63 -340 -65 -14 -3 -83 -16 -155 -30 -71 -14 -141 -28 -155 -30 -168 -32 -616 -117 -650 -124 -65 -14 -361 -72 -385 -75 -11 -1 -128 -24 -260 -50 -132 -25 -251 -49 -265 -51 -14 -3 -164 -32 -335 -64 -170 -33 -321 -61 -335 -64 -14 -2 -144 -27 -290 -56 -146 -29 -274 -53 -285 -55 -11 -1 -128 -24 -260 -49 -132 -26 -355 -69 -495 -96 -140 -27 -374 -72 -520 -100 -146 -29 -276 -54 -290 -56 -14 -3 -119 -23 -235 -46 -115 -22 -219 -42 -230 -43 -11 -2 -126 -23 -255 -49 -129 -25 -246 -47 -260 -50 -14 -2 -74 -14 -135 -26 -60 -12 -121 -24 -135 -26 -35 -7 -429 -82 -462 -89 -16 -3 -40 -7 -55 -10 -190 -38 -452 -88 -468 -90 -11 -2 -195 -37 -410 -79 -214 -41 -402 -77 -417 -80 -15 -3 -63 -12 -105 -20 -43 -9 -89 -17 -103 -20 -179 -32 -706 -144 -810 -172 -274 -76 -459 -165 -615 -297 -259 -220 -407 -477 -486 -848 -19 -86 -23 -135 -22 -284 0 -230 28 -375 113 -588 35 -88 121 -252 139 -267 13 -11 51 -70 51 -79 0 -5 4 -11 8 -13 5 -1 38 -41 73 -88 35 -47 69 -89 75 -95 6 -5 51 -55 100 -110 49 -55 98 -109 109 -121 11 -11 49 -52 84 -90 35 -38 121 -130 191 -204 70 -74 142 -151 160 -170 17 -19 87 -93 153 -164 67 -71 130 -138 140 -150 10 -12 73 -79 140 -150 67 -71 127 -134 132 -140 6 -7 44 -48 85 -92 41 -44 111 -118 155 -165 44 -47 114 -121 155 -165 130 -138 343 -366 405 -434 33 -35 65 -69 71 -75 6 -5 48 -51 95 -100 211 -226 347 -371 379 -405 19 -20 60 -63 90 -96 30 -32 111 -120 181 -194 69 -74 157 -168 195 -209 38 -41 85 -91 104 -111 19 -20 83 -88 141 -151 59 -63 130 -139 159 -169 29 -30 94 -100 145 -155 52 -55 115 -123 142 -151 43 -46 195 -209 298 -319 21 -22 93 -98 160 -170 67 -71 134 -143 150 -160 15 -16 76 -82 135 -145 59 -63 120 -128 136 -145 15 -16 80 -86 145 -155 64 -69 132 -141 151 -161 69 -74 248 -266 298 -319 29 -30 77 -82 108 -115 32 -33 113 -121 182 -194 69 -73 136 -145 150 -160 14 -15 86 -92 160 -171 222 -237 247 -264 276 -295 15 -16 80 -86 145 -155 177 -189 189 -201 286 -307 226 -246 285 -330 334 -471 27 -79 34 -133 33 -262 0 -116 -6 -187 -24 -322 -5 -40 -12 -93 -15 -118 -6 -48 -42 -341 -50 -400 -3 -19 -7 -55 -10 -80 -3 -25 -10 -79 -15 -120 -13 -99 -20 -156 -25 -204 -3 -21 -7 -55 -10 -75 -2 -20 -7 -56 -10 -81 -12 -97 -15 -128 -25 -200 -5 -41 -12 -95 -15 -120 -3 -25 -7 -61 -10 -81 -3 -20 -8 -56 -10 -79 -3 -24 -9 -78 -15 -119 -5 -42 -12 -96 -15 -121 -3 -25 -7 -61 -10 -80 -3 -19 -7 -54 -10 -77 -3 -24 -7 -62 -10 -85 -3 -24 -10 -79 -15 -123 -18 -137 -20 -149 -25 -195 -3 -25 -7 -61 -10 -81 -5 -35 -10 -72 -20 -161 -2 -24 -7 -59 -10 -78 -3 -19 -7 -55 -10 -80 -3 -25 -8 -63 -10 -85 -12 -89 -22 -169 -30 -245 -3 -25 -8 -56 -10 -70 -3 -14 -7 -50 -10 -80 -3 -30 -7 -66 -10 -80 -2 -14 -6 -50 -10 -80 -4 -30 -8 -66 -10 -80 -2 -14 -6 -50 -10 -80 -4 -30 -8 -66 -10 -80 -2 -14 -6 -50 -10 -80 -4 -30 -8 -66 -10 -80 -3 -14 -7 -50 -10 -80 -3 -30 -7 -66 -10 -80 -2 -14 -7 -50 -10 -80 -3 -30 -8 -66 -10 -80 -6 -43 -15 -113 -20 -160 -3 -25 -7 -61 -10 -80 -3 -19 -8 -55 -10 -80 -2 -25 -7 -61 -9 -80 -3 -19 -8 -53 -10 -75 -5 -40 -23 -178 -31 -245 -3 -19 -7 -55 -10 -80 -2 -25 -7 -61 -10 -80 -10 -71 -16 -118 -20 -160 -2 -24 -7 -59 -9 -79 -9 -63 -26 -194 -31 -241 -5 -45 -10 -80 -19 -155 -3 -22 -8 -60 -11 -85 -3 -25 -10 -79 -15 -120 -13 -99 -20 -156 -25 -204 -3 -21 -7 -55 -10 -75 -2 -20 -7 -56 -10 -81 -12 -97 -15 -128 -25 -200 -5 -41 -12 -95 -15 -120 -3 -25 -10 -81 -15 -125 -18 -135 -20 -149 -25 -195 -3 -25 -12 -99 -20 -165 -9 -66 -18 -138 -20 -160 -3 -22 -7 -56 -10 -75 -3 -19 -7 -53 -9 -75 -3 -22 -10 -76 -16 -120 -5 -44 -12 -100 -15 -125 -3 -25 -7 -61 -10 -80 -7 -50 -14 -108 -20 -160 -3 -25 -17 -135 -31 -245 -14 -110 -27 -218 -29 -240 -3 -22 -7 -56 -9 -75 -3 -19 -8 -53 -11 -75 -2 -22 -14 -112 -25 -200 -11 -88 -22 -180 -25 -205 -3 -25 -7 -61 -10 -80 -3 -19 -8 -55 -10 -79 -2 -24 -7 -60 -10 -80 -46 -331 -60 -579 -41 -755 8 -77 37 -226 57 -296 7 -25 13 -47 14 -50 25 -115 158 -384 230 -466 6 -7 37 -43 70 -81 107 -124 263 -242 420 -318 93 -44 280 -109 349 -119 21 -4 41 -8 45 -11 4 -2 27 -7 52 -10 24 -3 60 -8 79 -10 99 -13 318 -3 426 20 276 58 497 134 812 281 130 61 233 109 332 157 52 24 268 126 480 225 212 99 428 200 480 225 88 42 331 155 495 232 39 18 115 54 170 80 55 26 157 73 227 106 69 32 135 62 145 68 10 6 59 29 108 52 157 72 385 179 513 240 68 32 125 59 127 59 2 0 59 27 127 59 67 33 269 128 448 211 379 178 444 208 565 265 128 61 578 272 655 307 36 17 125 59 199 94 73 35 135 64 137 64 2 0 74 34 160 75 86 41 158 75 160 75 1 0 69 31 149 70 80 38 164 78 188 89 23 11 87 40 142 66 55 26 129 61 165 77 36 17 121 57 189 89 68 33 125 59 127 59 1 0 65 30 141 66 76 37 199 95 273 129 139 65 245 114 398 186 48 23 123 58 167 79 94 44 126 59 660 310 226 106 550 257 720 337 611 286 787 390 988 582 207 197 335 424 411 729 14 53 27 111 30 127 3 17 7 39 9 50 6 24 24 151 32 220 3 28 8 160 10 295 16 847 12 760 41 890 8 36 24 90 36 120 21 53 93 194 110 215 5 6 42 55 82 110 41 55 94 125 118 156 74 95 460 582 487 615 14 17 38 46 52 65 15 19 176 223 359 454 183 231 405 512 494 624 88 112 166 209 171 215 6 6 23 29 39 51 17 22 33 42 36 45 3 3 116 145 250 315 135 171 250 317 257 325 72 89 148 186 443 560 314 398 468 591 512 645 9 11 164 207 344 435 180 228 339 429 353 447 14 17 38 46 52 65 273 346 734 928 747 943 10 11 31 38 48 60 16 22 34 45 39 51 6 6 22 26 37 45 15 19 91 115 170 215 79 99 154 195 168 213 14 18 30 38 35 44 6 7 55 68 109 137 54 69 105 134 114 145 10 11 50 62 91 114 41 52 80 102 87 110 7 9 118 149 246 311 263 332 1066 1347 1085 1370 7 8 44 56 83 105 39 50 76 97 83 105 50 63 776 978 792 999 17 22 545 690 578 731 7 8 46 58 87 110 41 52 80 102 87 110 7 8 155 195 329 415 174 220 355 450 404 510 48 61 237 299 419 530 183 231 337 427 344 435 11 13 226 285 250 315 4 6 41 53 83 105 41 52 81 102 87 110 7 8 64 80 127 160 63 80 120 152 127 160 6 8 37 47 67 85 91 115 97 122 265 335 89 113 175 221 191 240 27 33 73 91 272 345 44 55 84 107 91 115 7 8 55 69 107 135 125 157 121 153 151 189 14 17 92 117 174 221 82 105 154 195 160 201 5 6 21 26 35 44 23 31 80 103 150 190 572 716 696 897 775 1133 49 149 64 349 35 494 -36 183 -133 393 -294 638 -54 83 -120 182 -145 220 -25 39 -48 72 -51 75 -3 3 -28 39 -56 80 -113 167 -456 672 -608 895 -41 61 -186 272 -320 470 -135 198 -250 367 -256 375 -5 8 -38 56 -71 105 -34 50 -107 157 -163 238 -55 82 -109 161 -118 175 -10 15 -23 35 -30 45 -7 10 -101 147 -208 305 -361 532 -453 666 -590 867 -75 110 -194 286 -265 390 -71 105 -142 209 -159 232 -17 23 -42 61 -56 84 -14 23 -29 47 -35 53 -5 6 -37 52 -71 101 -33 50 -144 211 -245 359 -101 147 -188 275 -194 284 -30 49 -211 286 -260 342 -98 110 -236 228 -325 276 -19 10 -37 22 -40 25 -24 28 -305 120 -404 133 -17 2 -56 7 -86 11 -30 4 -66 10 -80 13 -14 3 -1213 7 -2665 9 -4205 5 -5408 8 -5440 16 -89 23 -114 31 -159 54 -142 72 -187 140 -321 487 -94 241 -266 467 -465 609 -36 26 -71 52 -78 58 -7 6 -57 33 -110 60 -106 54 -296 119 -407 139 -38 7 -81 15 -95 19 -29 8 -333 15 -340 8z m30 -2059 c0 -5 5 -6 10 -3 6 3 10 2 10 -4 0 -5 6 -16 13 -23 36 -39 60 -131 75 -293 4 -44 7 -5604 7 -12355 l0 -12275 -22 -84 c-33 -122 -68 -186 -148 -266 -92 -91 -191 -149 -540 -312 -371 -174 -720 -338 -1045 -491 -173 -81 -247 -115 -315 -147 -38 -18 -119 -56 -180 -85 -60 -29 -171 -81 -245 -115 -74 -34 -180 -84 -235 -110 -55 -26 -167 -79 -250 -117 -82 -39 -186 -87 -230 -108 -44 -21 -147 -69 -230 -108 -82 -38 -199 -93 -260 -122 -60 -28 -139 -65 -175 -82 -36 -17 -103 -49 -150 -71 -101 -47 -379 -178 -505 -237 -115 -53 -196 -92 -315 -148 -52 -24 -131 -61 -175 -82 -512 -240 -896 -420 -965 -452 -47 -22 -155 -73 -240 -113 -85 -40 -198 -93 -250 -117 -52 -25 -120 -57 -150 -71 -30 -14 -136 -63 -235 -110 -99 -46 -216 -101 -260 -122 -173 -81 -225 -105 -348 -164 -71 -34 -130 -61 -132 -61 -2 0 -64 -29 -137 -64 -246 -117 -273 -130 -278 -131 -3 -1 -41 -18 -85 -39 -44 -21 -114 -54 -155 -73 -41 -20 -115 -55 -165 -78 -131 -62 -260 -123 -340 -160 -122 -56 -206 -96 -333 -156 -68 -33 -125 -59 -127 -59 -2 0 -37 -15 -78 -34 -158 -74 -295 -101 -373 -76 -52 17 -106 61 -126 102 -9 18 -22 46 -29 62 -10 20 -14 71 -13 170 1 118 24 324 143 1266 77 619 144 1145 146 1170 3 25 8 61 11 80 2 19 7 51 9 70 2 19 34 271 70 560 36 289 67 543 70 565 2 22 7 58 10 80 3 22 8 58 10 80 3 22 14 110 25 195 11 85 22 173 24 195 15 122 477 3811 481 3843 3 20 30 237 60 481 31 244 58 458 60 475 2 17 13 110 25 206 11 96 24 204 30 240 5 36 12 90 15 120 3 30 8 66 10 80 2 14 7 50 10 80 3 30 8 69 10 85 3 17 5 91 6 166 1 154 -17 241 -72 352 -27 52 -110 180 -128 197 -3 3 -37 40 -76 84 -38 43 -80 90 -95 105 -14 15 -86 92 -160 171 -74 79 -163 174 -197 210 -34 36 -70 75 -80 87 -10 11 -74 80 -143 153 -69 73 -147 156 -173 184 -26 28 -71 76 -100 106 -46 49 -249 266 -334 358 -18 19 -60 64 -94 101 -34 36 -96 102 -138 146 -42 45 -128 137 -192 205 -65 69 -134 144 -155 166 -22 23 -86 92 -144 154 -58 61 -123 131 -145 155 -22 23 -69 73 -104 111 -35 38 -124 132 -196 209 -73 77 -144 154 -159 170 -15 17 -55 59 -89 95 -76 81 -291 310 -342 365 -49 53 -121 130 -295 315 -136 145 -239 255 -285 305 -11 11 -60 64 -109 116 -48 51 -114 121 -145 154 -48 52 -119 128 -332 356 -19 20 -86 91 -149 158 -63 68 -126 135 -140 150 -21 23 -211 225 -305 326 -16 17 -57 61 -90 96 -33 35 -123 132 -201 214 -77 83 -167 179 -200 214 -32 35 -77 83 -99 106 -22 23 -84 89 -137 146 -53 57 -120 129 -148 159 -81 86 -155 165 -285 304 -66 71 -136 145 -155 166 -19 20 -93 99 -165 176 -71 76 -143 153 -160 170 -16 18 -77 83 -135 145 -58 62 -115 123 -126 136 -50 51 -117 147 -145 207 -69 148 -21 271 138 346 98 46 151 59 858 194 215 41 440 84 500 96 61 12 121 24 135 26 20 4 345 66 465 89 17 3 64 12 105 20 65 12 851 163 935 180 17 3 43 8 59 10 15 2 35 7 45 9 9 3 32 8 51 11 19 3 67 12 105 20 55 11 659 127 775 149 14 2 72 14 130 25 58 11 400 77 760 146 360 69 1016 195 1457 280 442 85 813 156 825 159 13 2 95 18 183 35 88 16 171 32 185 35 14 2 189 36 390 75 201 38 377 72 391 75 14 2 73 13 130 25 57 11 116 23 132 26 15 3 39 7 55 10 15 3 62 12 105 21 42 8 90 17 105 20 15 3 86 16 157 30 72 14 141 28 155 30 14 2 57 11 95 19 39 8 86 16 105 19 19 3 78 14 130 25 52 10 111 22 131 25 100 15 294 61 373 87 165 55 266 124 372 254 49 60 75 100 165 253 9 15 54 96 100 180 46 84 93 170 105 190 11 20 40 73 64 117 23 44 62 114 85 155 23 41 45 82 48 90 4 8 18 33 32 55 14 22 28 47 32 55 4 8 50 94 104 190 53 97 112 205 132 240 19 36 94 172 166 303 72 130 190 344 262 475 72 130 147 266 166 302 20 36 47 85 61 110 13 25 58 105 98 178 41 73 74 137 74 142 0 6 5 10 10 10 6 0 10 4 10 9 0 7 63 124 222 411 23 42 172 313 223 405 12 22 83 150 157 285 74 135 148 270 165 300 17 30 128 233 248 450 120 217 230 418 245 445 15 28 74 133 130 234 56 102 117 212 135 245 33 62 531 964 577 1046 14 25 41 74 61 110 19 36 46 85 60 110 73 131 244 441 264 480 14 25 32 59 42 75 10 17 36 64 58 105 191 354 393 710 457 805 77 114 171 219 186 210 5 -3 11 2 14 11 3 8 10 13 15 10 5 -3 20 -2 33 3 25 9 78 -5 78 -21z m9605 -902 c51 -8 109 -19 115 -21 3 -1 19 -5 35 -10 77 -20 191 -91 265 -165 94 -93 182 -216 550 -760 5 -8 27 -40 49 -71 21 -31 89 -132 152 -224 164 -241 213 -313 319 -469 52 -76 102 -149 110 -162 8 -13 152 -225 320 -471 350 -514 578 -848 769 -1130 130 -191 385 -567 519 -763 624 -915 632 -927 667 -1065 48 -187 -9 -334 -244 -634 -83 -105 -356 -450 -453 -572 -41 -51 -1915 -2419 -1943 -2454 -33 -43 -227 -287 -242 -305 -7 -8 -35 -44 -63 -80 -28 -36 -88 -112 -134 -170 -46 -58 -154 -195 -241 -305 -87 -110 -200 -252 -250 -315 -50 -63 -185 -234 -300 -380 -319 -404 -454 -574 -495 -625 -14 -16 -39 -48 -55 -70 -16 -22 -32 -42 -35 -45 -3 -3 -48 -59 -100 -125 -169 -214 -1320 -1669 -1350 -1705 -15 -19 -89 -112 -163 -206 -74 -94 -142 -180 -150 -190 -9 -10 -90 -112 -179 -225 -90 -113 -175 -221 -190 -240 -15 -19 -91 -115 -169 -214 -78 -99 -151 -192 -163 -206 -51 -64 -201 -253 -388 -491 -54 -68 -106 -134 -117 -148 -11 -14 -111 -140 -222 -280 -111 -140 -211 -267 -223 -281 -11 -14 -33 -41 -48 -60 -45 -58 -1077 -1362 -1103 -1394 -13 -16 -68 -86 -123 -155 -132 -168 -606 -766 -640 -809 -101 -128 -673 -850 -722 -911 -33 -41 -124 -156 -202 -255 -734 -927 -779 -976 -912 -1005 -123 -26 -201 80 -224 311 -7 60 -10 3589 -9 9779 l2 9685 23 79 c60 211 185 300 452 319 86 6 7469 0 7505 -7z" transform="translate(0.000000,3347.000000) scale(0.100000,-0.100000)"/></g></svg>